<?xml version="1.0" encoding="UTF-8"?>
<!-- Generated by Pixelmator Pro 3.7.1 -->
<svg width="1000" height="1000" viewBox="0 0 1000 1000" xmlns="http://www.w3.org/2000/svg">
    <path id="Rectangle" fill="#09090b" fill-rule="evenodd" stroke="none" d="M 0 1000 L 1000 1000 L 1000 0 L 0 0 Z"/>
    <path id="sl" fill="#fafafa" fill-rule="evenodd" stroke="none" d="M 718.392029 350.76001 L 718.392029 350.76001 C 718.104004 350.76001 717.960022 350.76001 717.960022 350.76001 C 717.960022 350.76001 717.960022 350.903992 717.960022 351.192017 L 717.960022 389.208008 C 717.960022 389.495972 717.960022 389.640015 717.960022 389.640015 C 717.960022 389.640015 718.104004 389.640015 718.392029 389.640015 L 756.40802 389.640015 C 756.695984 389.640015 756.840027 389.640015 756.840027 389.640015 C 756.840027 389.640015 756.840027 389.495972 756.840027 389.208008 L 756.840027 351.192017 C 756.840027 350.903992 756.840027 350.76001 756.840027 350.76001 C 756.840027 350.76001 756.695984 350.76001 756.40802 350.76001 Z M 761.59198 350.76001 L 761.59198 350.76001 C 761.304016 350.76001 761.159973 350.76001 761.159973 350.76001 C 761.159973 350.76001 761.159973 350.903992 761.159973 351.192017 L 761.159973 389.208008 C 761.159973 389.495972 761.159973 389.640015 761.159973 389.640015 C 761.159973 389.640015 761.304016 389.640015 761.59198 389.640015 L 799.607971 389.640015 C 799.895996 389.640015 800.039978 389.640015 800.039978 389.640015 C 800.039978 389.640015 800.039978 389.495972 800.039978 389.208008 L 800.039978 351.192017 C 800.039978 350.903992 800.039978 350.76001 800.039978 350.76001 C 800.039978 350.76001 799.895996 350.76001 799.607971 350.76001 Z M 761.59198 393.959961 L 761.59198 393.959961 C 761.304016 393.959961 761.159973 393.959961 761.159973 393.959961 C 761.159973 393.959961 761.159973 394.104004 761.159973 394.391968 L 761.159973 432.407959 C 761.159973 432.696045 761.159973 432.839966 761.159973 432.839966 C 761.159973 432.839966 761.304016 432.839966 761.59198 432.839966 L 799.607971 432.839966 C 799.895996 432.839966 800.039978 432.839966 800.039978 432.839966 C 800.039978 432.839966 800.039978 432.696045 800.039978 432.407959 L 800.039978 394.391968 C 800.039978 394.104004 800.039978 393.959961 800.039978 393.959961 C 800.039978 393.959961 799.895996 393.959961 799.607971 393.959961 Z M 761.59198 437.160034 L 761.59198 437.160034 C 761.304016 437.160034 761.159973 437.160034 761.159973 437.160034 C 761.159973 437.160034 761.159973 437.303955 761.159973 437.592041 L 761.159973 475.608032 C 761.159973 475.895996 761.159973 476.040039 761.159973 476.040039 C 761.159973 476.040039 761.304016 476.040039 761.59198 476.040039 L 799.607971 476.040039 C 799.895996 476.040039 800.039978 476.040039 800.039978 476.040039 C 800.039978 476.040039 800.039978 475.895996 800.039978 475.608032 L 800.039978 437.592041 C 800.039978 437.303955 800.039978 437.160034 800.039978 437.160034 C 800.039978 437.160034 799.895996 437.160034 799.607971 437.160034 Z M 761.59198 480.359985 L 761.59198 480.359985 C 761.304016 480.359985 761.159973 480.359985 761.159973 480.359985 C 761.159973 480.359985 761.159973 480.504028 761.159973 480.791992 L 761.159973 518.807983 C 761.159973 519.096008 761.159973 519.23999 761.159973 519.23999 C 761.159973 519.23999 761.304016 519.23999 761.59198 519.23999 L 799.607971 519.23999 C 799.895996 519.23999 800.039978 519.23999 800.039978 519.23999 C 800.039978 519.23999 800.039978 519.096008 800.039978 518.807983 L 800.039978 480.791992 C 800.039978 480.504028 800.039978 480.359985 800.039978 480.359985 C 800.039978 480.359985 799.895996 480.359985 799.607971 480.359985 Z M 761.59198 523.559998 L 761.59198 523.559998 C 761.304016 523.559998 761.159973 523.559998 761.159973 523.559998 C 761.159973 523.559998 761.159973 523.703979 761.159973 523.992004 L 761.159973 562.007996 C 761.159973 562.296021 761.159973 562.440002 761.159973 562.440002 C 761.159973 562.440002 761.304016 562.440002 761.59198 562.440002 L 799.607971 562.440002 C 799.895996 562.440002 800.039978 562.440002 800.039978 562.440002 C 800.039978 562.440002 800.039978 562.296021 800.039978 562.007996 L 800.039978 523.992004 C 800.039978 523.703979 800.039978 523.559998 800.039978 523.559998 C 800.039978 523.559998 799.895996 523.559998 799.607971 523.559998 Z M 761.59198 566.76001 L 761.59198 566.76001 C 761.304016 566.76001 761.159973 566.76001 761.159973 566.76001 C 761.159973 566.76001 761.159973 566.903992 761.159973 567.192017 L 761.159973 605.208008 C 761.159973 605.495972 761.159973 605.640015 761.159973 605.640015 C 761.159973 605.640015 761.304016 605.640015 761.59198 605.640015 L 799.607971 605.640015 C 799.895996 605.640015 800.039978 605.640015 800.039978 605.640015 C 800.039978 605.640015 800.039978 605.495972 800.039978 605.208008 L 800.039978 567.192017 C 800.039978 566.903992 800.039978 566.76001 800.039978 566.76001 C 800.039978 566.76001 799.895996 566.76001 799.607971 566.76001 Z M 718.392029 609.960022 L 718.392029 609.960022 C 718.104004 609.960022 717.960022 609.960022 717.960022 609.960022 C 717.960022 609.960022 717.960022 610.104004 717.960022 610.391968 L 717.960022 648.407959 C 717.960022 648.695984 717.960022 648.839966 717.960022 648.839966 C 717.960022 648.839966 718.104004 648.839966 718.392029 648.839966 L 756.40802 648.839966 C 756.695984 648.839966 756.840027 648.839966 756.840027 648.839966 C 756.840027 648.839966 756.840027 648.695984 756.840027 648.407959 L 756.840027 610.391968 C 756.840027 610.104004 756.840027 609.960022 756.840027 609.960022 C 756.840027 609.960022 756.695984 609.960022 756.40802 609.960022 Z M 761.59198 609.960022 L 761.59198 609.960022 C 761.304016 609.960022 761.159973 609.960022 761.159973 609.960022 C 761.159973 609.960022 761.159973 610.104004 761.159973 610.391968 L 761.159973 648.407959 C 761.159973 648.695984 761.159973 648.839966 761.159973 648.839966 C 761.159973 648.839966 761.304016 648.839966 761.59198 648.839966 L 799.607971 648.839966 C 799.895996 648.839966 800.039978 648.839966 800.039978 648.839966 C 800.039978 648.839966 800.039978 648.695984 800.039978 648.407959 L 800.039978 610.391968 C 800.039978 610.104004 800.039978 609.960022 800.039978 609.960022 C 800.039978 609.960022 799.895996 609.960022 799.607971 609.960022 Z M 804.791992 609.960022 L 804.791992 609.960022 C 804.504028 609.960022 804.359985 609.960022 804.359985 609.960022 C 804.359985 609.960022 804.359985 610.104004 804.359985 610.391968 L 804.359985 648.407959 C 804.359985 648.695984 804.359985 648.839966 804.359985 648.839966 C 804.359985 648.839966 804.504028 648.839966 804.791992 648.839966 L 842.807983 648.839966 C 843.096008 648.839966 843.23999 648.839966 843.23999 648.839966 C 843.23999 648.839966 843.23999 648.695984 843.23999 648.407959 L 843.23999 610.391968 C 843.23999 610.104004 843.23999 609.960022 843.23999 609.960022 C 843.23999 609.960022 843.096008 609.960022 842.807983 609.960022 Z M 588.791992 350.76001 L 588.791992 350.76001 C 588.504028 350.76001 588.359985 350.76001 588.359985 350.76001 C 588.359985 350.76001 588.359985 350.903992 588.359985 351.192017 L 588.359985 389.208008 C 588.359985 389.495972 588.359985 389.640015 588.359985 389.640015 C 588.359985 389.640015 588.504028 389.640015 588.791992 389.640015 L 626.807983 389.640015 C 627.096008 389.640015 627.23999 389.640015 627.23999 389.640015 C 627.23999 389.640015 627.23999 389.495972 627.23999 389.208008 L 627.23999 351.192017 C 627.23999 350.903992 627.23999 350.76001 627.23999 350.76001 C 627.23999 350.76001 627.096008 350.76001 626.807983 350.76001 Z M 588.791992 393.959961 L 588.791992 393.959961 C 588.504028 393.959961 588.359985 393.959961 588.359985 393.959961 C 588.359985 393.959961 588.359985 394.104004 588.359985 394.391968 L 588.359985 432.407959 C 588.359985 432.696045 588.359985 432.839966 588.359985 432.839966 C 588.359985 432.839966 588.504028 432.839966 588.791992 432.839966 L 626.807983 432.839966 C 627.096008 432.839966 627.23999 432.839966 627.23999 432.839966 C 627.23999 432.839966 627.23999 432.696045 627.23999 432.407959 L 627.23999 394.391968 C 627.23999 394.104004 627.23999 393.959961 627.23999 393.959961 C 627.23999 393.959961 627.096008 393.959961 626.807983 393.959961 Z M 545.59198 437.160034 L 545.59198 437.160034 C 545.303955 437.160034 545.159973 437.160034 545.159973 437.160034 C 545.159973 437.160034 545.159973 437.303955 545.159973 437.592041 L 545.159973 475.608032 C 545.159973 475.895996 545.159973 476.040039 545.159973 476.040039 C 545.159973 476.040039 545.303955 476.040039 545.59198 476.040039 L 583.608032 476.040039 C 583.895996 476.040039 584.040039 476.040039 584.040039 476.040039 C 584.040039 476.040039 584.040039 475.895996 584.040039 475.608032 L 584.040039 437.592041 C 584.040039 437.303955 584.040039 437.160034 584.040039 437.160034 C 584.040039 437.160034 583.895996 437.160034 583.608032 437.160034 Z M 502.391998 480.359985 L 502.391998 480.359985 C 502.104004 480.359985 501.959991 480.359985 501.959991 480.359985 C 501.959991 480.359985 501.959991 480.504028 501.959991 480.791992 L 501.959991 518.807983 C 501.959991 519.096008 501.959991 519.23999 501.959991 519.23999 C 501.959991 519.23999 502.104004 519.23999 502.391998 519.23999 L 540.407959 519.23999 C 540.695984 519.23999 540.839966 519.23999 540.839966 519.23999 C 540.839966 519.23999 540.839966 519.096008 540.839966 518.807983 L 540.839966 480.791992 C 540.839966 480.504028 540.839966 480.359985 540.839966 480.359985 C 540.839966 480.359985 540.695984 480.359985 540.407959 480.359985 Z M 459.191986 523.559998 L 459.191986 523.559998 C 458.903992 523.559998 458.76001 523.559998 458.76001 523.559998 C 458.76001 523.559998 458.76001 523.703979 458.76001 523.992004 L 458.76001 562.007996 C 458.76001 562.296021 458.76001 562.440002 458.76001 562.440002 C 458.76001 562.440002 458.903992 562.440002 459.191986 562.440002 L 497.208008 562.440002 C 497.496002 562.440002 497.640015 562.440002 497.640015 562.440002 C 497.640015 562.440002 497.640015 562.296021 497.640015 562.007996 L 497.640015 523.992004 C 497.640015 523.703979 497.640015 523.559998 497.640015 523.559998 C 497.640015 523.559998 497.496002 523.559998 497.208008 523.559998 Z M 415.992004 566.76001 L 415.992004 566.76001 C 415.70401 566.76001 415.559998 566.76001 415.559998 566.76001 C 415.559998 566.76001 415.559998 566.903992 415.559998 567.192017 L 415.559998 605.208008 C 415.559998 605.495972 415.559998 605.640015 415.559998 605.640015 C 415.559998 605.640015 415.70401 605.640015 415.992004 605.640015 L 454.007996 605.640015 C 454.29599 605.640015 454.440002 605.640015 454.440002 605.640015 C 454.440002 605.640015 454.440002 605.495972 454.440002 605.208008 L 454.440002 567.192017 C 454.440002 566.903992 454.440002 566.76001 454.440002 566.76001 C 454.440002 566.76001 454.29599 566.76001 454.007996 566.76001 Z M 415.992004 609.960022 L 415.992004 609.960022 C 415.70401 609.960022 415.559998 609.960022 415.559998 609.960022 C 415.559998 609.960022 415.559998 610.104004 415.559998 610.391968 L 415.559998 648.407959 C 415.559998 648.695984 415.559998 648.839966 415.559998 648.839966 C 415.559998 648.839966 415.70401 648.839966 415.992004 648.839966 L 454.007996 648.839966 C 454.29599 648.839966 454.440002 648.839966 454.440002 648.839966 C 454.440002 648.839966 454.440002 648.695984 454.440002 648.407959 L 454.440002 610.391968 C 454.440002 610.104004 454.440002 609.960022 454.440002 609.960022 C 454.440002 609.960022 454.29599 609.960022 454.007996 609.960022 Z M 199.992004 437.160034 L 199.992004 437.160034 C 199.703995 437.160034 199.559998 437.160034 199.559998 437.160034 C 199.559998 437.160034 199.559998 437.303955 199.559998 437.592041 L 199.559998 475.608032 C 199.559998 475.895996 199.559998 476.040039 199.559998 476.040039 C 199.559998 476.040039 199.703995 476.040039 199.992004 476.040039 L 238.007996 476.040039 C 238.296005 476.040039 238.440002 476.040039 238.440002 476.040039 C 238.440002 476.040039 238.440002 475.895996 238.440002 475.608032 L 238.440002 437.592041 C 238.440002 437.303955 238.440002 437.160034 238.440002 437.160034 C 238.440002 437.160034 238.296005 437.160034 238.007996 437.160034 Z M 243.192001 437.160034 L 243.192001 437.160034 C 242.903992 437.160034 242.76001 437.160034 242.76001 437.160034 C 242.76001 437.160034 242.76001 437.303955 242.76001 437.592041 L 242.76001 475.608032 C 242.76001 475.895996 242.76001 476.040039 242.76001 476.040039 C 242.76001 476.040039 242.903992 476.040039 243.192001 476.040039 L 281.207977 476.040039 C 281.496002 476.040039 281.639984 476.040039 281.639984 476.040039 C 281.639984 476.040039 281.639984 475.895996 281.639984 475.608032 L 281.639984 437.592041 C 281.639984 437.303955 281.639984 437.160034 281.639984 437.160034 C 281.639984 437.160034 281.496002 437.160034 281.207977 437.160034 Z M 286.391998 437.160034 L 286.391998 437.160034 C 286.104004 437.160034 285.959991 437.160034 285.959991 437.160034 C 285.959991 437.160034 285.959991 437.303955 285.959991 437.592041 L 285.959991 475.608032 C 285.959991 475.895996 285.959991 476.040039 285.959991 476.040039 C 285.959991 476.040039 286.104004 476.040039 286.391998 476.040039 L 324.40802 476.040039 C 324.695984 476.040039 324.839996 476.040039 324.839996 476.040039 C 324.839996 476.040039 324.839996 475.895996 324.839996 475.608032 L 324.839996 437.592041 C 324.839996 437.303955 324.839996 437.160034 324.839996 437.160034 C 324.839996 437.160034 324.695984 437.160034 324.40802 437.160034 Z M 156.791992 480.359985 L 156.791992 480.359985 C 156.503998 480.359985 156.360001 480.359985 156.360001 480.359985 C 156.360001 480.359985 156.360001 480.504028 156.360001 480.791992 L 156.360001 518.807983 C 156.360001 519.096008 156.360001 519.23999 156.360001 519.23999 C 156.360001 519.23999 156.503998 519.23999 156.791992 519.23999 L 194.807999 519.23999 C 195.096008 519.23999 195.240005 519.23999 195.240005 519.23999 C 195.240005 519.23999 195.240005 519.096008 195.240005 518.807983 L 195.240005 480.791992 C 195.240005 480.504028 195.240005 480.359985 195.240005 480.359985 C 195.240005 480.359985 195.096008 480.359985 194.807999 480.359985 Z M 199.992004 523.559998 L 199.992004 523.559998 C 199.703995 523.559998 199.559998 523.559998 199.559998 523.559998 C 199.559998 523.559998 199.559998 523.703979 199.559998 523.992004 L 199.559998 562.007996 C 199.559998 562.296021 199.559998 562.440002 199.559998 562.440002 C 199.559998 562.440002 199.703995 562.440002 199.992004 562.440002 L 238.007996 562.440002 C 238.296005 562.440002 238.440002 562.440002 238.440002 562.440002 C 238.440002 562.440002 238.440002 562.296021 238.440002 562.007996 L 238.440002 523.992004 C 238.440002 523.703979 238.440002 523.559998 238.440002 523.559998 C 238.440002 523.559998 238.296005 523.559998 238.007996 523.559998 Z M 243.192001 523.559998 L 243.192001 523.559998 C 242.903992 523.559998 242.76001 523.559998 242.76001 523.559998 C 242.76001 523.559998 242.76001 523.703979 242.76001 523.992004 L 242.76001 562.007996 C 242.76001 562.296021 242.76001 562.440002 242.76001 562.440002 C 242.76001 562.440002 242.903992 562.440002 243.192001 562.440002 L 281.207977 562.440002 C 281.496002 562.440002 281.639984 562.440002 281.639984 562.440002 C 281.639984 562.440002 281.639984 562.296021 281.639984 562.007996 L 281.639984 523.992004 C 281.639984 523.703979 281.639984 523.559998 281.639984 523.559998 C 281.639984 523.559998 281.496002 523.559998 281.207977 523.559998 Z M 286.391998 523.559998 L 286.391998 523.559998 C 286.104004 523.559998 285.959991 523.559998 285.959991 523.559998 C 285.959991 523.559998 285.959991 523.703979 285.959991 523.992004 L 285.959991 562.007996 C 285.959991 562.296021 285.959991 562.440002 285.959991 562.440002 C 285.959991 562.440002 286.104004 562.440002 286.391998 562.440002 L 324.40802 562.440002 C 324.695984 562.440002 324.839996 562.440002 324.839996 562.440002 C 324.839996 562.440002 324.839996 562.296021 324.839996 562.007996 L 324.839996 523.992004 C 324.839996 523.703979 324.839996 523.559998 324.839996 523.559998 C 324.839996 523.559998 324.695984 523.559998 324.40802 523.559998 Z M 329.59198 566.76001 L 329.59198 566.76001 C 329.304016 566.76001 329.160004 566.76001 329.160004 566.76001 C 329.160004 566.76001 329.160004 566.903992 329.160004 567.192017 L 329.160004 605.208008 C 329.160004 605.495972 329.160004 605.640015 329.160004 605.640015 C 329.160004 605.640015 329.304016 605.640015 329.59198 605.640015 L 367.608002 605.640015 C 367.895996 605.640015 368.039978 605.640015 368.039978 605.640015 C 368.039978 605.640015 368.039978 605.495972 368.039978 605.208008 L 368.039978 567.192017 C 368.039978 566.903992 368.039978 566.76001 368.039978 566.76001 C 368.039978 566.76001 367.895996 566.76001 367.608002 566.76001 Z M 156.791992 609.960022 L 156.791992 609.960022 C 156.503998 609.960022 156.360001 609.960022 156.360001 609.960022 C 156.360001 609.960022 156.360001 610.104004 156.360001 610.391968 L 156.360001 648.407959 C 156.360001 648.695984 156.360001 648.839966 156.360001 648.839966 C 156.360001 648.839966 156.503998 648.839966 156.791992 648.839966 L 194.807999 648.839966 C 195.096008 648.839966 195.240005 648.839966 195.240005 648.839966 C 195.240005 648.839966 195.240005 648.695984 195.240005 648.407959 L 195.240005 610.391968 C 195.240005 610.104004 195.240005 609.960022 195.240005 609.960022 C 195.240005 609.960022 195.096008 609.960022 194.807999 609.960022 Z M 199.992004 609.960022 L 199.992004 609.960022 C 199.703995 609.960022 199.559998 609.960022 199.559998 609.960022 C 199.559998 609.960022 199.559998 610.104004 199.559998 610.391968 L 199.559998 648.407959 C 199.559998 648.695984 199.559998 648.839966 199.559998 648.839966 C 199.559998 648.839966 199.703995 648.839966 199.992004 648.839966 L 238.007996 648.839966 C 238.296005 648.839966 238.440002 648.839966 238.440002 648.839966 C 238.440002 648.839966 238.440002 648.695984 238.440002 648.407959 L 238.440002 610.391968 C 238.440002 610.104004 238.440002 609.960022 238.440002 609.960022 C 238.440002 609.960022 238.296005 609.960022 238.007996 609.960022 Z M 243.192001 609.960022 L 243.192001 609.960022 C 242.903992 609.960022 242.76001 609.960022 242.76001 609.960022 C 242.76001 609.960022 242.76001 610.104004 242.76001 610.391968 L 242.76001 648.407959 C 242.76001 648.695984 242.76001 648.839966 242.76001 648.839966 C 242.76001 648.839966 242.903992 648.839966 243.192001 648.839966 L 281.207977 648.839966 C 281.496002 648.839966 281.639984 648.839966 281.639984 648.839966 C 281.639984 648.839966 281.639984 648.695984 281.639984 648.407959 L 281.639984 610.391968 C 281.639984 610.104004 281.639984 609.960022 281.639984 609.960022 C 281.639984 609.960022 281.496002 609.960022 281.207977 609.960022 Z M 286.391998 609.960022 L 286.391998 609.960022 C 286.104004 609.960022 285.959991 609.960022 285.959991 609.960022 C 285.959991 609.960022 285.959991 610.104004 285.959991 610.391968 L 285.959991 648.407959 C 285.959991 648.695984 285.959991 648.839966 285.959991 648.839966 C 285.959991 648.839966 286.104004 648.839966 286.391998 648.839966 L 324.40802 648.839966 C 324.695984 648.839966 324.839996 648.839966 324.839996 648.839966 C 324.839996 648.839966 324.839996 648.695984 324.839996 648.407959 L 324.839996 610.391968 C 324.839996 610.104004 324.839996 609.960022 324.839996 609.960022 C 324.839996 609.960022 324.695984 609.960022 324.40802 609.960022 Z"/>
</svg>
